<?xml version="1.0" encoding="UTF-8" standalone="no"?>
<!DOCTYPE svg PUBLIC "-//W3C//DTD SVG 1.1//EN"
 "http://www.w3.org/Graphics/SVG/1.1/DTD/svg11.dtd">
<!-- Generated by graphviz version 2.38.0 (20140413.2041)
 -->
<!-- Title: %3 Pages: 1 -->
<svg width="259pt" height="207pt"
 viewBox="0.00 0.00 258.50 206.89" xmlns="http://www.w3.org/2000/svg" xmlns:xlink="http://www.w3.org/1999/xlink">
<g id="graph0" class="graph" transform="scale(1 1) rotate(0) translate(4 202.894)">
<title>%3</title>
<polygon fill="white" stroke="none" points="-4,4 -4,-202.894 254.5,-202.894 254.5,4 -4,4"/>
<!-- x_t -->
<g id="node1" class="node"><title>x_t</title>
<polygon fill="lightgray" stroke="black" points="28,-126.317 1.77636e-015,-126.317 1.77636e-015,-108.317 28,-108.317 28,-126.317"/>
<text text-anchor="middle" x="14" y="-115.117" font-family="Times New Roman,serif" font-size="9.00">x_t</text>
</g>
<!-- x_t+1 -->
<g id="node5" class="node"><title>x_t+1</title>
<ellipse fill="lightblue" stroke="black" cx="82" cy="-26.8701" rx="26.7407" ry="26.7407"/>
<text text-anchor="middle" x="82" y="-24.6701" font-family="Times New Roman,serif" font-size="9.00">x_t+1</text>
</g>
<!-- x_t&#45;&gt;x_t+1 -->
<g id="edge1" class="edge"><title>x_t&#45;&gt;x_t+1</title>
<path fill="none" stroke="green" stroke-width="0.259679" d="M20.2754,-108.155C29.2282,-96.51 46.1166,-74.5433 59.9677,-56.5274"/>
<polygon fill="green" stroke="green" stroke-width="0.259679" points="62.7581,-58.6402 66.0785,-48.5791 57.2086,-54.3736 62.7581,-58.6402"/>
</g>
<!-- y_t -->
<g id="node2" class="node"><title>y_t</title>
<polygon fill="lightgray" stroke="black" points="193.5,-198.894 164.5,-198.894 164.5,-180.894 193.5,-180.894 193.5,-198.894"/>
<text text-anchor="middle" x="179" y="-187.694" font-family="Times New Roman,serif" font-size="9.00">y_t</text>
</g>
<!-- y_t+1 -->
<g id="node6" class="node"><title>y_t+1</title>
<ellipse fill="lightblue" stroke="black" cx="179" cy="-117.317" rx="27.6545" ry="27.6545"/>
<text text-anchor="middle" x="179" y="-115.117" font-family="Times New Roman,serif" font-size="9.00">y_t+1</text>
</g>
<!-- y_t&#45;&gt;y_t+1 -->
<g id="edge2" class="edge"><title>y_t&#45;&gt;y_t+1</title>
<path fill="none" stroke="green" stroke-width="0.281749" d="M179,-180.798C179,-174.349 179,-164.825 179,-155.145"/>
<polygon fill="green" stroke="green" stroke-width="0.281749" points="182.5,-155.125 179,-145.125 175.5,-155.125 182.5,-155.125"/>
</g>
<!-- x_act -->
<g id="node3" class="node"><title>x_act</title>
<polygon fill="lightgray" stroke="black" points="126.5,-198.894 91.5,-198.894 91.5,-180.894 126.5,-180.894 126.5,-198.894"/>
<text text-anchor="middle" x="109" y="-187.694" font-family="Times New Roman,serif" font-size="9.00">x_act</text>
</g>
<!-- x_act&#45;&gt;x_t+1 -->
<g id="edge3" class="edge"><title>x_act&#45;&gt;x_t+1</title>
<path fill="none" stroke="green" stroke-width="0.188652" stroke-dasharray="1,5" d="M100.033,-180.833C91.7238,-172.707 79.9274,-159.33 75,-144.894 66.008,-118.552 68.6213,-86.9565 73.0065,-63.2389"/>
<polygon fill="green" stroke="green" stroke-width="0.188652" points="76.4707,-63.7672 75.0378,-53.2697 69.6116,-62.3696 76.4707,-63.7672"/>
</g>
<!-- x_act&#45;&gt;y_t+1 -->
<g id="edge4" class="edge"><title>x_act&#45;&gt;y_t+1</title>
<path fill="none" stroke="red" stroke-width="0.421335" stroke-dasharray="1,5" d="M117.03,-180.798C125.736,-172.021 140.09,-157.548 152.792,-144.741"/>
<polygon fill="red" stroke="red" stroke-width="0.421335" points="155.468,-147.013 160.025,-137.448 150.498,-142.084 155.468,-147.013"/>
</g>
<!-- 1532 -->
<g id="node7" class="node"><title>1532</title>
<ellipse fill="white" stroke="black" cx="109" cy="-117.317" rx="25" ry="25"/>
<text text-anchor="middle" x="109" y="-115.117" font-family="Times New Roman,serif" font-size="9.00">1532</text>
</g>
<!-- x_act&#45;&gt;1532 -->
<g id="edge7" class="edge"><title>x_act&#45;&gt;1532</title>
<path fill="none" stroke="green" stroke-width="0.3" d="M109,-180.798C109,-173.719 109,-162.935 109,-152.309"/>
<polygon fill="green" stroke="green" stroke-width="0.3" points="112.5,-152.295 109,-142.295 105.5,-152.295 112.5,-152.295"/>
</g>
<!-- y_act -->
<g id="node4" class="node"><title>y_act</title>
<polygon fill="lightgray" stroke="black" points="250.5,-198.894 213.5,-198.894 213.5,-180.894 250.5,-180.894 250.5,-198.894"/>
<text text-anchor="middle" x="232" y="-187.694" font-family="Times New Roman,serif" font-size="9.00">y_act</text>
</g>
<!-- y_act&#45;&gt;x_t+1 -->
<g id="edge5" class="edge"><title>y_act&#45;&gt;x_t+1</title>
<path fill="none" stroke="green" stroke-width="0.5725" stroke-dasharray="1,5" d="M233.064,-180.724C234.988,-162.413 237.081,-117.521 216,-89.7401 192.412,-58.6549 149.47,-42.6591 118.546,-34.8003"/>
<polygon fill="green" stroke="green" stroke-width="0.5725" points="119.103,-31.3354 108.565,-32.4371 117.49,-38.147 119.103,-31.3354"/>
</g>
<!-- y_act&#45;&gt;y_t+1 -->
<g id="edge6" class="edge"><title>y_act&#45;&gt;y_t+1</title>
<path fill="none" stroke="green" stroke-width="0.140735" d="M225.92,-180.798C219.867,-172.738 210.207,-159.874 201.221,-147.908"/>
<polygon fill="green" stroke="green" stroke-width="0.140735" points="203.964,-145.732 195.16,-139.837 198.367,-149.935 203.964,-145.732"/>
</g>
<!-- 1532&#45;&gt;x_t+1 -->
<g id="edge8" class="edge"><title>1532&#45;&gt;x_t+1</title>
<path fill="none" stroke="red" stroke-width="0.137924" d="M102.047,-93.5399C99.1577,-84.0757 95.7407,-72.8823 92.554,-62.4431"/>
<polygon fill="red" stroke="red" stroke-width="0.137924" points="95.8612,-61.289 89.594,-52.7466 89.1662,-63.3328 95.8612,-61.289"/>
</g>
</g>
</svg>
