<?xml version="1.0" encoding="UTF-8" standalone="no"?>
<!DOCTYPE svg PUBLIC "-//W3C//DTD SVG 1.1//EN"
 "http://www.w3.org/Graphics/SVG/1.1/DTD/svg11.dtd">
<!-- Generated by graphviz version 2.38.0 (20140413.2041)
 -->
<!-- Title: %3 Pages: 1 -->
<svg width="404pt" height="379pt"
 viewBox="0.00 0.00 403.75 379.30" xmlns="http://www.w3.org/2000/svg" xmlns:xlink="http://www.w3.org/1999/xlink">
<g id="graph0" class="graph" transform="scale(1 1) rotate(0) translate(4 375.304)">
<title>%3</title>
<polygon fill="white" stroke="none" points="-4,4 -4,-375.304 399.749,-375.304 399.749,4 -4,4"/>
<!-- x_t -->
<g id="node1" class="node"><title>x_t</title>
<polygon fill="lightgray" stroke="black" points="28,-213.229 1.77636e-015,-213.229 1.77636e-015,-195.229 28,-195.229 28,-213.229"/>
<text text-anchor="middle" x="14" y="-202.029" font-family="Times New Roman,serif" font-size="9.00">x_t</text>
</g>
<!-- x_t+1 -->
<g id="node5" class="node"><title>x_t+1</title>
<ellipse fill="lightblue" stroke="black" cx="46" cy="-113.075" rx="26.7407" ry="26.7407"/>
<text text-anchor="middle" x="46" y="-110.875" font-family="Times New Roman,serif" font-size="9.00">x_t+1</text>
</g>
<!-- x_t&#45;&gt;x_t+1 -->
<g id="edge1" class="edge"><title>x_t&#45;&gt;x_t+1</title>
<path fill="none" stroke="red" stroke-width="2.12897" d="M16.9531,-195.001C20.7557,-184.407 27.6004,-165.337 33.6906,-148.369"/>
<polygon fill="red" stroke="red" stroke-width="2.12897" points="37.0765,-149.297 37.1605,-138.702 30.488,-146.932 37.0765,-149.297"/>
</g>
<!-- y_t -->
<g id="node2" class="node"><title>y_t</title>
<polygon fill="lightgray" stroke="black" points="96.5,-371.304 67.5,-371.304 67.5,-353.304 96.5,-353.304 96.5,-371.304"/>
<text text-anchor="middle" x="82" y="-360.104" font-family="Times New Roman,serif" font-size="9.00">y_t</text>
</g>
<!-- y_t+1 -->
<g id="node6" class="node"><title>y_t+1</title>
<ellipse fill="lightblue" stroke="black" cx="178" cy="-113.075" rx="27.6545" ry="27.6545"/>
<text text-anchor="middle" x="178" y="-110.875" font-family="Times New Roman,serif" font-size="9.00">y_t+1</text>
</g>
<!-- y_t&#45;&gt;y_t+1 -->
<g id="edge7" class="edge"><title>y_t&#45;&gt;y_t+1</title>
<path fill="none" stroke="red" stroke-width="0.916009" d="M80.3249,-353.24C78.5913,-344.45 75.9996,-329.949 75,-317.304 70.0027,-254.085 64.2912,-229.725 99,-176.652 110.716,-158.737 129.277,-143.653 145.464,-132.786"/>
<polygon fill="red" stroke="red" stroke-width="0.916009" points="147.641,-135.547 154.155,-127.191 143.852,-129.661 147.641,-135.547"/>
</g>
<!-- 3212 -->
<g id="node8" class="node"><title>3212</title>
<ellipse fill="white" stroke="black" cx="109" cy="-292.555" rx="25" ry="25"/>
<text text-anchor="middle" x="109" y="-290.355" font-family="Times New Roman,serif" font-size="9.00">3212</text>
</g>
<!-- y_t&#45;&gt;3212 -->
<g id="edge6" class="edge"><title>y_t&#45;&gt;3212</title>
<path fill="none" stroke="red" stroke-width="0.880252" d="M85.2033,-353.266C88.0053,-346.235 92.2645,-335.548 96.4089,-325.149"/>
<polygon fill="red" stroke="red" stroke-width="0.880252" points="99.6867,-326.378 100.138,-315.793 93.1841,-323.786 99.6867,-326.378"/>
</g>
<!-- x_act -->
<g id="node3" class="node"><title>x_act</title>
<polygon fill="lightgray" stroke="black" points="251.5,-301.555 216.5,-301.555 216.5,-283.555 251.5,-283.555 251.5,-301.555"/>
<text text-anchor="middle" x="234" y="-290.355" font-family="Times New Roman,serif" font-size="9.00">x_act</text>
</g>
<!-- x_act&#45;&gt;y_t+1 -->
<g id="edge2" class="edge"><title>x_act&#45;&gt;y_t+1</title>
<path fill="none" stroke="red" stroke-width="0.329146" stroke-dasharray="1,5" d="M231.448,-283.468C224.079,-260.114 202.441,-191.537 189.064,-149.14"/>
<polygon fill="red" stroke="red" stroke-width="0.329146" points="192.365,-147.969 186.018,-139.486 185.689,-150.075 192.365,-147.969"/>
</g>
<!-- 52374 -->
<g id="node11" class="node"><title>52374</title>
<ellipse fill="white" stroke="black" cx="262" cy="-204.229" rx="27.6545" ry="27.6545"/>
<text text-anchor="middle" x="262" y="-202.029" font-family="Times New Roman,serif" font-size="9.00">52374</text>
</g>
<!-- x_act&#45;&gt;52374 -->
<g id="edge13" class="edge"><title>x_act&#45;&gt;52374</title>
<path fill="none" stroke="green" stroke-width="0.168608" d="M236.685,-283.278C239.904,-273.353 245.507,-256.077 250.625,-240.298"/>
<polygon fill="green" stroke="green" stroke-width="0.168608" points="253.967,-241.338 253.723,-230.746 247.309,-239.179 253.967,-241.338"/>
</g>
<!-- y_act -->
<g id="node4" class="node"><title>y_act</title>
<polygon fill="lightgray" stroke="black" points="362.5,-301.555 325.5,-301.555 325.5,-283.555 362.5,-283.555 362.5,-301.555"/>
<text text-anchor="middle" x="344" y="-290.355" font-family="Times New Roman,serif" font-size="9.00">y_act</text>
</g>
<!-- y_act&#45;&gt;y_t+1 -->
<g id="edge10" class="edge"><title>y_act&#45;&gt;y_t+1</title>
<path fill="none" stroke="red" stroke-width="0.203108" d="M342.805,-283.277C339.46,-262.807 328.255,-209.12 299,-176.652 276.189,-151.335 240.722,-134.693 214.074,-124.981"/>
<polygon fill="red" stroke="red" stroke-width="0.203108" points="214.932,-121.573 204.337,-121.594 212.632,-128.185 214.932,-121.573"/>
</g>
<!-- 1553 -->
<g id="node10" class="node"><title>1553</title>
<ellipse fill="white" stroke="black" cx="371" cy="-204.229" rx="25" ry="25"/>
<text text-anchor="middle" x="371" y="-202.029" font-family="Times New Roman,serif" font-size="9.00">1553</text>
</g>
<!-- y_act&#45;&gt;1553 -->
<g id="edge3" class="edge"><title>y_act&#45;&gt;1553</title>
<path fill="none" stroke="green" stroke-width="1.37741" d="M346.589,-283.278C349.846,-272.863 355.635,-254.356 360.757,-237.977"/>
<polygon fill="green" stroke="green" stroke-width="1.37741" points="364.188,-238.734 363.833,-228.145 357.507,-236.644 364.188,-238.734"/>
</g>
<!-- 3789 -->
<g id="node9" class="node"><title>3789</title>
<ellipse fill="white" stroke="black" cx="98" cy="-24.7487" rx="25" ry="25"/>
<text text-anchor="middle" x="98" y="-22.5487" font-family="Times New Roman,serif" font-size="9.00">3789</text>
</g>
<!-- x_t+1&#45;&gt;3789 -->
<g id="edge8" class="edge"><title>x_t+1&#45;&gt;3789</title>
<path fill="none" stroke="green" stroke-width="0.374781" stroke-dasharray="1,5" d="M59.6624,-89.3935C66.0257,-78.8296 73.6726,-66.1349 80.4573,-54.8716"/>
<polygon fill="green" stroke="green" stroke-width="0.374781" points="83.5108,-56.5856 85.6726,-46.2136 77.5146,-52.9736 83.5108,-56.5856"/>
</g>
<!-- y_t+1&#45;&gt;3789 -->
<g id="edge9" class="edge"><title>y_t+1&#45;&gt;3789</title>
<path fill="none" stroke="green" stroke-width="0.37743" d="M159.445,-92.0528C148.101,-79.8117 133.49,-64.0452 121.362,-50.9582"/>
<polygon fill="green" stroke="green" stroke-width="0.37743" points="123.916,-48.565 114.552,-43.6093 118.782,-53.3231 123.916,-48.565"/>
</g>
<!-- 19721 -->
<g id="node7" class="node"><title>19721</title>
<ellipse fill="white" stroke="black" cx="150" cy="-204.229" rx="27.6545" ry="27.6545"/>
<text text-anchor="middle" x="150" y="-202.029" font-family="Times New Roman,serif" font-size="9.00">19721</text>
</g>
<!-- 19721&#45;&gt;y_t+1 -->
<g id="edge12" class="edge"><title>19721&#45;&gt;y_t+1</title>
<path fill="none" stroke="red" stroke-width="1.49119" d="M158.099,-177.442C160.88,-168.587 164.041,-158.521 167.012,-149.06"/>
<polygon fill="red" stroke="red" stroke-width="1.49119" points="170.359,-150.085 170.016,-139.496 163.681,-147.988 170.359,-150.085"/>
</g>
<!-- 3212&#45;&gt;y_t+1 -->
<g id="edge5" class="edge"><title>3212&#45;&gt;y_t+1</title>
<path fill="none" stroke="red" stroke-width="1.50155" stroke-dasharray="1,5" d="M104.835,-267.954C101.701,-243.881 99.908,-206.001 113,-176.652 120.346,-160.185 134.227,-145.874 147.282,-135.111"/>
<polygon fill="red" stroke="red" stroke-width="1.50155" points="149.523,-137.801 155.238,-128.879 145.207,-132.29 149.523,-137.801"/>
</g>
<!-- 3212&#45;&gt;19721 -->
<g id="edge11" class="edge"><title>3212&#45;&gt;19721</title>
<path fill="none" stroke="green" stroke-width="0.388477" d="M119.346,-269.771C123.814,-260.364 129.143,-249.144 134.095,-238.718"/>
<polygon fill="green" stroke="green" stroke-width="0.388477" points="137.372,-239.975 138.501,-229.441 131.049,-236.972 137.372,-239.975"/>
</g>
<!-- 1553&#45;&gt;y_t+1 -->
<g id="edge4" class="edge"><title>1553&#45;&gt;y_t+1</title>
<path fill="none" stroke="green" stroke-width="0.677836" d="M351.27,-188.591C345.249,-184.455 338.499,-180.136 332,-176.652 293.098,-155.798 245.71,-137.526 213.862,-126.194"/>
<polygon fill="green" stroke="green" stroke-width="0.677836" points="214.693,-122.776 204.098,-122.764 212.373,-129.381 214.693,-122.776"/>
</g>
<!-- 52374&#45;&gt;y_t+1 -->
<g id="edge14" class="edge"><title>52374&#45;&gt;y_t+1</title>
<path fill="none" stroke="red" stroke-width="0.487443" d="M243.358,-183.443C231.721,-171.092 216.577,-155.019 203.797,-141.455"/>
<polygon fill="red" stroke="red" stroke-width="0.487443" points="205.995,-138.684 196.59,-133.806 200.9,-143.484 205.995,-138.684"/>
</g>
</g>
</svg>
